<?xml version="1.0" encoding="UTF-8" standalone="no"?>
<!-- Created with Inkscape (http://www.inkscape.org/) -->

<svg
   version="1.1"
   id="svg1"
   width="180"
   height="53.333599"
   viewBox="0 0 180 53.333599"
   xmlns="http://www.w3.org/2000/svg"
   xmlns:svg="http://www.w3.org/2000/svg">
  <defs
     id="defs1">
    <clipPath
       clipPathUnits="userSpaceOnUse"
       id="clipPath2">
      <path
         d="M 0,40 H 135 V 0 H 0 Z"
         transform="translate(-130,-2.0025001e-4)"
         id="path2" />
    </clipPath>
    <clipPath
       clipPathUnits="userSpaceOnUse"
       id="clipPath4">
      <path
         d="M 0,40 H 135 V 0 H 0 Z"
         transform="translate(-130,-40.000001)"
         id="path4" />
    </clipPath>
    <clipPath
       clipPathUnits="userSpaceOnUse"
       id="clipPath6">
      <path
         d="M 0,40 H 135 V 0 H 0 Z"
         id="path6" />
    </clipPath>
    <clipPath
       clipPathUnits="userSpaceOnUse"
       id="clipPath8">
      <path
         d="M 0,40 H 135 V 0 H 0 Z"
         transform="translate(-20.7172,-20.576001)"
         id="path8" />
    </clipPath>
    <clipPath
       clipPathUnits="userSpaceOnUse"
       id="clipPath10">
      <path
         d="M 0,40 H 135 V 0 H 0 Z"
         transform="translate(-31.488101,-22.500201)"
         id="path10" />
    </clipPath>
    <clipPath
       clipPathUnits="userSpaceOnUse"
       id="clipPath12">
      <path
         d="M 0,40 H 135 V 0 H 0 Z"
         transform="translate(-10.070001,-30.723001)"
         id="path12" />
    </clipPath>
    <clipPath
       clipPathUnits="userSpaceOnUse"
       id="clipPath14">
      <path
         d="M 0,40 H 135 V 0 H 0 Z"
         transform="translate(-20.7958,-19.999101)"
         id="path14" />
    </clipPath>
  </defs>
  <g
     id="layer-MC0">
    <path
       id="path1"
       d="m 0,0 h -125 c -2.75,0 -5,2.25 -5,5 v 30 c 0,2.75 2.25,5 5,5 H 0 c 2.75,0 5,-2.25 5,-5 V 5 C 5,2.25 2.75,0 0,0"
       style="fill:#000000;fill-opacity:1;fill-rule:nonzero;stroke:none"
       transform="matrix(1.3333333,0,0,-1.3333333,173.33333,53.333333)"
       clip-path="url(#clipPath2)" />
    <path
       id="path3"
       d="m 0,0 h -125 c -2.75,0 -5,-2.25 -5,-5 v -30 c 0,-2.75 2.25,-5 5,-5 H 0 c 2.75,0 5,2.25 5,5 V -5 C 5,-2.25 2.75,0 0,0 m 0,-0.8 c 2.316,0 4.2,-1.884 4.2,-4.2 v -30 c 0,-2.316 -1.884,-4.2 -4.2,-4.2 h -125 c -2.316,0 -4.2,1.884 -4.2,4.2 v 30 c 0,2.316 1.884,4.2 4.2,4.2 z"
       style="fill:#a6a6a6;fill-opacity:1;fill-rule:nonzero;stroke:none"
       transform="matrix(1.3333333,0,0,-1.3333333,173.33333,2.6666667e-4)"
       clip-path="url(#clipPath4)" />
    <path
       id="path5"
       d="m 106.936,10 h 1.866 v 12.501 h -1.866 z m 16.807,7.998 -2.139,-5.42 h -0.064 l -2.22,5.42 h -2.01 l 3.329,-7.575 -1.898,-4.214 h 1.946 l 5.131,11.789 z M 113.161,11.42 c -0.612,0 -1.464,0.306 -1.464,1.062 0,0.965 1.061,1.334 1.978,1.334 0.82,0 1.206,-0.177 1.705,-0.418 -0.145,-1.158 -1.142,-1.978 -2.219,-1.978 m 0.225,6.851 c -1.351,0 -2.751,-0.595 -3.33,-1.913 l 1.657,-0.692 c 0.354,0.692 1.013,0.917 1.705,0.917 0.965,0 1.946,-0.579 1.962,-1.608 v -0.129 c -0.338,0.193 -1.062,0.482 -1.946,0.482 -1.785,0 -3.603,-0.981 -3.603,-2.814 0,-1.673 1.464,-2.75 3.104,-2.75 1.255,0 1.946,0.562 2.381,1.222 h 0.064 v -0.965 h 1.801 v 4.793 c 0,2.219 -1.656,3.457 -3.795,3.457 M 101.854,16.476 H 99.2 v 4.286 h 2.654 c 1.395,0 2.187,-1.156 2.187,-2.143 0,-0.969 -0.792,-2.143 -2.187,-2.143 m -0.048,6.025 H 97.335 V 10 H 99.2 v 4.736 h 2.606 c 2.068,0 4.101,1.498 4.101,3.883 0,2.385 -2.033,3.882 -4.101,3.882 M 77.425,11.418 c -1.289,0 -2.368,1.079 -2.368,2.561 0,1.498 1.079,2.594 2.368,2.594 1.273,0 2.271,-1.096 2.271,-2.594 0,-1.482 -0.998,-2.561 -2.271,-2.561 m 2.142,5.88 h -0.064 c -0.419,0.499 -1.224,0.951 -2.239,0.951 -2.127,0 -4.076,-1.869 -4.076,-4.27 0,-2.384 1.949,-4.237 4.076,-4.237 1.015,0 1.82,0.451 2.239,0.967 h 0.064 V 10.097 C 79.567,8.469 78.698,7.6 77.296,7.6 76.152,7.6 75.443,8.421 75.153,9.114 L 73.526,8.437 c 0.467,-1.128 1.708,-2.513 3.77,-2.513 2.191,0 4.044,1.289 4.044,4.43 v 7.637 H 79.567 Z M 82.628,10 h 1.869 v 12.502 h -1.869 z m 4.624,4.124 c -0.048,1.644 1.273,2.481 2.223,2.481 0.742,0 1.37,-0.37 1.579,-0.902 z m 5.8,1.418 c -0.355,0.951 -1.434,2.707 -3.641,2.707 -2.191,0 -4.011,-1.724 -4.011,-4.254 0,-2.384 1.804,-4.253 4.22,-4.253 1.95,0 3.077,1.192 3.545,1.885 l -1.45,0.967 c -0.484,-0.709 -1.144,-1.176 -2.095,-1.176 -0.95,0 -1.627,0.435 -2.062,1.288 l 5.687,2.353 z m -45.308,1.401 v -1.804 h 4.317 c -0.129,-1.015 -0.467,-1.756 -0.982,-2.271 -0.629,-0.629 -1.612,-1.321 -3.335,-1.321 -2.659,0 -4.737,2.142 -4.737,4.801 0,2.658 2.078,4.8 4.737,4.8 1.434,0 2.481,-0.563 3.254,-1.288 l 1.273,1.272 c -1.08,1.031 -2.513,1.821 -4.527,1.821 -3.641,0 -6.702,-2.965 -6.702,-6.605 0,-3.642 3.061,-6.606 6.702,-6.606 1.965,0 3.447,0.645 4.607,1.853 1.192,1.192 1.563,2.867 1.563,4.221 0,0.419 -0.032,0.805 -0.097,1.127 z m 11.078,-5.525 c -1.288,0 -2.4,1.063 -2.4,2.577 0,1.531 1.112,2.578 2.4,2.578 1.289,0 2.401,-1.047 2.401,-2.578 0,-1.514 -1.112,-2.577 -2.401,-2.577 m 0,6.831 c -2.352,0 -4.269,-1.789 -4.269,-4.254 0,-2.448 1.917,-4.253 4.269,-4.253 2.352,0 4.27,1.805 4.27,4.253 0,2.465 -1.918,4.254 -4.27,4.254 m 9.314,-6.831 c -1.289,0 -2.401,1.063 -2.401,2.577 0,1.531 1.112,2.578 2.401,2.578 1.289,0 2.4,-1.047 2.4,-2.578 0,-1.514 -1.111,-2.577 -2.4,-2.577 m 0,6.831 c -2.352,0 -4.269,-1.789 -4.269,-4.254 0,-2.448 1.917,-4.253 4.269,-4.253 2.352,0 4.269,1.805 4.269,4.253 0,2.465 -1.917,4.254 -4.269,4.254"
       style="fill:#ffffff;fill-opacity:1;fill-rule:nonzero;stroke:none"
       transform="matrix(1.3333333,0,0,-1.3333333,0,53.3336)"
       clip-path="url(#clipPath6)" />
    <path
       id="path7"
       d="m 0,0 -10.647,-11.3 c 10e-4,-0.002 10e-4,-0.005 0.002,-0.007 0.327,-1.227 1.447,-2.13 2.777,-2.13 0.532,0 1.031,0.144 1.459,0.396 l 0.034,0.02 11.984,6.915 z"
       style="fill:#ea4335;fill-opacity:1;fill-rule:nonzero;stroke:none"
       transform="matrix(1.3333333,0,0,-1.3333333,27.622933,25.898933)"
       clip-path="url(#clipPath8)" />
    <path
       id="path9"
       d="m 0,0 -0.01,0.007 -5.174,2.999 -5.829,-5.187 5.85,-5.848 5.146,2.969 c 0.902,0.488 1.515,1.439 1.515,2.535 C 1.498,-1.435 0.894,-0.489 0,0"
       style="fill:#fbbc04;fill-opacity:1;fill-rule:nonzero;stroke:none"
       transform="matrix(1.3333333,0,0,-1.3333333,41.984133,23.333333)"
       clip-path="url(#clipPath10)" />
    <path
       id="path11"
       d="m 0,0 c -0.064,-0.236 -0.098,-0.484 -0.098,-0.74 v -19.968 c 0,-0.256 0.034,-0.504 0.099,-0.739 l 11.012,11.011 z"
       style="fill:#4285f4;fill-opacity:1;fill-rule:nonzero;stroke:none"
       transform="matrix(1.3333333,0,0,-1.3333333,13.426667,12.3696)"
       clip-path="url(#clipPath12)" />
    <path
       id="path13"
       d="m 0,0 5.51,5.509 -11.97,6.94 c -0.435,0.261 -0.943,0.411 -1.486,0.411 -1.33,0 -2.452,-0.905 -2.779,-2.133 0,-10e-4 -0.001,-0.002 -0.001,-0.003 z"
       style="fill:#34a853;fill-opacity:1;fill-rule:nonzero;stroke:none"
       transform="matrix(1.3333333,0,0,-1.3333333,27.727733,26.668133)"
       clip-path="url(#clipPath14)" />
    <path
       id="path15"
       d="M 0.71532188,-6.2223672 H 2.7075094 c 0.6386719,0 1.1982422,0.1347656 1.6757812,0.3984375 0.4833985,0.2578125 0.8554688,0.6210938 1.1132813,1.0898438 0.2578125,0.46875 0.3867187,1.0078125 0.3867187,1.6171875 0,0.609375 -0.1289062,1.1542968 -0.3867187,1.6289062 -0.2578125,0.46875 -0.6298828,0.83789064 -1.1132813,1.10156251 C 3.9057516,-0.12861719 3.3461813,2.890625e-4 2.7075094,2.890625e-4 H 0.71532188 Z m 1.96875002,5.29687501 c 0.6943359,0 1.2363281,-0.19042971 1.6289062,-0.57421871 0.3896485,-0.3896485 0.5859375,-0.928711 0.5859375,-1.6171875 0,-0.6708985 -0.196289,-1.2011719 -0.5859375,-1.59375 C 3.9204,-5.1002969 3.3784078,-5.2965859 2.6840719,-5.2965859 H 1.6879781 v 4.37109371 z M 7.1606344,-6.2223672 H 8.1332906 V 2.890625e-4 H 7.1606344 Z m 4.3710936,6.36328126 c -0.515625,0 -0.981445,-0.14648437 -1.394531,-0.4453125 C 9.7299703,-0.60908594 9.4487203,-1.0338906 9.2934469,-1.5817422 l 0.9257811,-0.375 c 0.09375,0.3457031 0.257813,0.6269531 0.492188,0.84375 0.234375,0.21093751 0.515625,0.31640626 0.84375,0.31640626 0.304687,0 0.5625,-0.0761719 0.773437,-0.23437496 0.216797,-0.1552735 0.328125,-0.375 0.328125,-0.65625 0,-0.2578125 -0.09375,-0.46875 -0.28125,-0.6328125 -0.1875,-0.1640625 -0.515625,-0.328125 -0.984375,-0.4921875 l -0.398437,-0.140625 c -0.416016,-0.1464844 -0.767578,-0.3574219 -1.0546879,-0.6328125 -0.28125,-0.272461 -0.421875,-0.6328125 -0.421875,-1.078125 0,-0.3046875 0.082031,-0.5859375 0.2460938,-0.84375 0.1699219,-0.2636719 0.4042971,-0.4716797 0.7031251,-0.6210938 0.304687,-0.1552734 0.644531,-0.234375 1.019531,-0.234375 0.544922,0 0.978516,0.1347656 1.300781,0.3984375 0.328125,0.2578125 0.544922,0.5566406 0.65625,0.890625 l -0.878906,0.375 c -0.06445,-0.2021484 -0.18457,-0.3779297 -0.363281,-0.5273437 -0.181641,-0.1464844 -0.416016,-0.2226563 -0.703125,-0.2226563 -0.28125,0 -0.521484,0.076172 -0.714844,0.2226563 -0.196289,0.140625 -0.292969,0.3251953 -0.292969,0.5507812 0,0.2109375 0.08496,0.3867188 0.257813,0.5273438 0.178711,0.140625 0.451172,0.2753906 0.820312,0.3984375 l 0.398438,0.1289062 c 0.530273,0.1875 0.94043,0.4306641 1.230469,0.7265625 0.295898,0.2988281 0.445312,0.6972656 0.445312,1.1953125 0,0.4072266 -0.105469,0.75000001 -0.316406,1.03125001 -0.205078,0.27539063 -0.46875,0.47753907 -0.796875,0.609375 -0.322266,0.13183594 -0.65332,0.19921875 -0.996094,0.19921875 z m 3.383789,-6.36328126 h 2.15625 c 0.366211,0 0.703125,0.082031 1.007813,0.2460938 0.310547,0.1582031 0.55664,0.3808593 0.738281,0.6679687 0.1875,0.2900391 0.28125,0.6181641 0.28125,0.984375 0,0.3691406 -0.09375,0.6972656 -0.28125,0.984375 -0.181641,0.2900391 -0.427734,0.515625 -0.738281,0.6796875 -0.304688,0.1640625 -0.641602,0.2460938 -1.007813,0.2460938 H 15.888173 V 2.890625e-4 h -0.972656 z m 2.167969,2.8828125 c 0.216797,0 0.404297,-0.046875 0.5625,-0.140625 0.155273,-0.09375 0.272461,-0.2138672 0.351562,-0.3632812 0.08496,-0.1552735 0.128907,-0.3164063 0.128907,-0.4804688 0,-0.1640625 -0.04395,-0.3193359 -0.128907,-0.46875 -0.0791,-0.1464844 -0.196289,-0.2695312 -0.351562,-0.3632812 -0.158203,-0.09375 -0.345703,-0.140625 -0.5625,-0.140625 h -1.195313 v 1.9570312 z m 6.052734,3.48046876 c -0.603515,0 -1.148437,-0.14355468 -1.640625,-0.43359375 -0.492187,-0.28710937 -0.878906,-0.6796875 -1.160156,-1.17187501 -0.28125,-0.4980469 -0.421875,-1.0488281 -0.421875,-1.6523437 0,-0.5917969 0.140625,-1.1367188 0.421875,-1.6289063 0.28125,-0.4980469 0.667969,-0.8935547 1.160156,-1.1835937 0.492188,-0.2871094 1.03711,-0.4335938 1.640625,-0.4335938 0.609375,0 1.154297,0.1464844 1.640625,0.4335938 0.492188,0.290039 0.878907,0.6855468 1.160157,1.1835937 0.287109,0.4921875 0.433593,1.0371094 0.433593,1.6289063 0,0.6035156 -0.140625,1.1542968 -0.421875,1.6523437 -0.28125,0.49218751 -0.667968,0.88476564 -1.160156,1.17187501 -0.492187,0.29003907 -1.042969,0.43359375 -1.652344,0.43359375 z m 0,-0.9375 c 0.413086,0 0.791016,-0.0966797 1.136719,-0.29296876 0.342773,-0.1933594 0.612305,-0.46875 0.808594,-0.8203125 0.193359,-0.3515625 0.292969,-0.7529297 0.292969,-1.2070312 0,-0.4511719 -0.09961,-0.8496094 -0.292969,-1.1953125 -0.196289,-0.3515625 -0.465821,-0.6240235 -0.808594,-0.8203125 -0.345703,-0.2021485 -0.723633,-0.3046875 -1.136719,-0.3046875 -0.407226,0 -0.782226,0.102539 -1.125,0.3046875 -0.345703,0.196289 -0.618164,0.46875 -0.820312,0.8203125 -0.196289,0.3457031 -0.292969,0.7441406 -0.292969,1.1953125 0,0.4541015 0.09668,0.8554687 0.292969,1.2070312 0.202148,0.3515625 0.474609,0.6269531 0.820312,0.8203125 0.342774,0.19628908 0.717774,0.29296876 1.125,0.29296876 z m 4.488282,-5.42578126 h 1.160156 l 2.777344,4.5234375 h 0.04687 l -0.04687,-1.1953125 v -3.328125 h 0.960937 V 2.890625e-4 H 31.515127 L 28.585439,-4.7692422 h -0.04687 l 0.04687,1.2070313 V 2.890625e-4 h -0.960937 z m 6.509765,0 h 0.972656 V 2.890625e-4 h -0.972656 z m 0.492188,-1.640625 h 1.089843 l -0.703125,1.1484375 h -0.796875 z m 1.415039,1.640625 h 1.078125 l 1.382812,4.1132813 0.222656,0.703125 h 0.04687 l 0.234375,-0.703125 1.453125,-4.1132813 h 1.066407 L 39.26415,2.890625e-4 h -1.019531 z m 6.442383,0 h 3.785156 v 0.9257813 h -2.8125 v 1.7226562 h 2.53125 v 0.9257813 h -2.53125 v 1.72265621 h 2.8125 V 2.890625e-4 h -3.785156 z m 5.132812,0 h 0.972656 v 5.29687501 H 51.26122 V 2.890625e-4 H 47.616689 Z M 51.527822,2.890625e-4 Z M 54.278798,-6.2223672 h 1.160157 l 2.777343,4.5234375 h 0.04687 l -0.04687,-1.1953125 v -3.328125 h 0.960938 V 2.890625e-4 H 58.169423 L 55.239736,-4.7692422 h -0.04687 l 0.04687,1.2070313 V 2.890625e-4 h -0.960938 z m 9.395508,6.36328126 c -0.603515,0 -1.148437,-0.14355468 -1.640625,-0.43359375 -0.492187,-0.28710937 -0.878906,-0.6796875 -1.160156,-1.17187501 -0.28125,-0.4980469 -0.421875,-1.0488281 -0.421875,-1.6523437 0,-0.5917969 0.140625,-1.1367188 0.421875,-1.6289063 0.28125,-0.4980469 0.667969,-0.8935547 1.160156,-1.1835937 0.492188,-0.2871094 1.03711,-0.4335938 1.640625,-0.4335938 0.609375,0 1.154297,0.1464844 1.640625,0.4335938 0.492188,0.290039 0.878906,0.6855468 1.160156,1.1835937 0.28711,0.4921875 0.433594,1.0371094 0.433594,1.6289063 0,0.6035156 -0.140625,1.1542968 -0.421875,1.6523437 -0.28125,0.49218751 -0.667969,0.88476564 -1.160156,1.17187501 -0.492188,0.29003907 -1.042969,0.43359375 -1.652344,0.43359375 z m 0,-0.9375 c 0.413086,0 0.791016,-0.0966797 1.136719,-0.29296876 0.342773,-0.1933594 0.612305,-0.46875 0.808594,-0.8203125 0.193359,-0.3515625 0.292968,-0.7529297 0.292968,-1.2070312 0,-0.4511719 -0.09961,-0.8496094 -0.292968,-1.1953125 -0.196289,-0.3515625 -0.465821,-0.6240235 -0.808594,-0.8203125 -0.345703,-0.2021485 -0.723633,-0.3046875 -1.136719,-0.3046875 -0.407226,0 -0.782226,0.102539 -1.125,0.3046875 -0.345703,0.196289 -0.618164,0.46875 -0.820312,0.8203125 -0.196289,0.3457031 -0.292969,0.7441406 -0.292969,1.1953125 0,0.4541015 0.09668,0.8554687 0.292969,1.2070312 0.202148,0.3515625 0.474609,0.6269531 0.820312,0.8203125 0.342774,0.19628908 0.717774,0.29296876 1.125,0.29296876 z m 0,0"
       style="fill:#ffffff;fill-opacity:1;fill-rule:nonzero;stroke:none"
       aria-label="DISPONÃVEL NO"
       transform="matrix(1.3333333,0,0,1.3333333,54.7728,17.511333)" />
  </g>
</svg>
